<?xml version="1.0" standalone="no"?>
<!DOCTYPE svg PUBLIC "-//W3C//DTD SVG 20010904//EN"
 "http://www.w3.org/TR/2001/REC-SVG-20010904/DTD/svg10.dtd">
<svg version="1.0" xmlns="http://www.w3.org/2000/svg"
 width="303.000000pt" height="280.000000pt" viewBox="0 0 303.000000 280.000000"
 preserveAspectRatio="xMidYMid meet">
<metadata>
Created by potrace 1.10, written by Peter Selinger 2001-2011
</metadata>
<g transform="translate(0.000000,280.000000) scale(0.100000,-0.100000)"
fill="#0ebeea" stroke="none">
<path d="M1265 2745 c-22 -8 -57 -14 -77 -14 -20 -1 -39 -5 -42 -10 -3 -5 -22
-12 -42 -16 -20 -3 -44 -10 -53 -15 -9 -5 -32 -15 -51 -23 -147 -59 -276 -146
-390 -262 -110 -112 -98 -98 -158 -190 -28 -44 -56 -85 -62 -92 -5 -7 -10 -17
-10 -23 0 -6 -13 -38 -30 -72 -17 -33 -30 -67 -30 -77 0 -9 -7 -25 -15 -35 -8
-11 -15 -35 -15 -54 0 -18 -5 -43 -12 -55 -12 -24 -31 -180 -31 -262 -1 -86
14 -218 29 -264 8 -25 14 -56 14 -71 0 -14 7 -35 15 -46 8 -10 14 -26 15 -34
0 -8 14 -45 32 -82 l32 -68 62 0 c83 0 120 -9 130 -30 27 -56 190 -230 279
-298 33 -25 63 -51 67 -57 4 -5 8 -41 8 -80 l1 -70 37 -16 c246 -106 437 -127
738 -81 33 5 70 14 82 21 11 6 30 11 41 11 19 0 38 7 139 53 51 23 66 48 59
94 -11 64 2 91 62 136 69 50 204 188 238 242 52 82 58 85 149 85 87 0 96 5
108 52 3 16 11 28 16 28 6 0 10 9 10 21 0 11 5 29 11 40 16 31 40 117 49 184
5 33 14 80 19 105 6 25 10 79 10 120 0 41 -4 95 -10 120 -5 25 -14 72 -19 105
-11 75 -28 142 -46 177 -8 14 -14 32 -14 38 0 7 -16 45 -36 84 -37 74 -43 85
-83 151 -26 42 -142 179 -176 206 -11 9 -38 34 -60 55 -34 32 -95 75 -167 119
-27 16 -100 52 -143 70 -22 9 -47 20 -56 25 -9 5 -33 12 -53 15 -20 4 -39 11
-42 16 -3 5 -20 9 -37 9 -18 0 -57 7 -87 15 -71 19 -347 19 -405 0z m342 -426
c178 -24 318 -94 449 -224 81 -80 97 -103 138 -189 26 -54 50 -113 53 -130 3
-17 10 -37 15 -43 6 -7 12 -68 15 -135 5 -116 1 -158 -27 -266 -11 -45 -84
-197 -103 -217 -7 -6 -28 -32 -47 -57 -36 -47 -128 -124 -196 -164 -130 -77
-270 -114 -429 -114 -198 0 -362 57 -515 180 -125 100 -218 244 -260 403 -21
78 -27 272 -11 337 43 167 83 250 170 349 187 215 452 311 748 270z"/>
<path d="M2505 780 c-41 -56 -148 -168 -210 -220 -36 -30 -65 -59 -65 -66 0
-13 31 -33 83 -55 15 -6 27 -15 27 -20 0 -5 9 -9 19 -9 11 0 22 -4 25 -9 3 -5
24 -18 47 -30 81 -42 288 -210 290 -235 0 -6 15 -23 33 -38 l32 -26 41 31 c70
55 102 138 83 220 -16 68 -11 57 -69 152 -67 109 -230 289 -291 320 -23 12
-27 11 -45 -15z"/>
<path d="M357 750 c-69 -59 -75 -65 -124 -122 -96 -112 -107 -128 -180 -268
-46 -90 -21 -197 62 -266 l46 -37 97 96 c103 103 179 163 247 197 11 6 47 26
80 45 33 19 79 45 103 57 l43 22 -73 66 c-94 84 -143 136 -225 237 l-18 22
-58 -49z"/>
</g>
</svg>
