<?xml version="1.0" standalone="no"?>
<!DOCTYPE svg PUBLIC "-//W3C//DTD SVG 20010904//EN"
 "http://www.w3.org/TR/2001/REC-SVG-20010904/DTD/svg10.dtd">
<svg version="1.0" xmlns="http://www.w3.org/2000/svg"
 width="303.000000pt" height="280.000000pt" viewBox="0 0 303.000000 280.000000"
 preserveAspectRatio="xMidYMid meet">
<metadata>
Created by potrace 1.10, written by Peter Selinger 2001-2011
</metadata>
<g transform="translate(0.000000,280.000000) scale(0.100000,-0.100000)"
fill="#000000" stroke="none">
<path d="M1325 2763 c-11 -2 -36 -8 -55 -13 -19 -6 -51 -12 -70 -13 -19 -2
-45 -9 -57 -15 -12 -7 -32 -12 -45 -12 -13 0 -33 -7 -44 -15 -10 -8 -29 -15
-40 -15 -12 0 -27 -7 -34 -15 -7 -8 -23 -15 -36 -15 -12 0 -26 -5 -29 -11 -4
-5 -17 -15 -28 -20 -42 -19 -123 -72 -177 -114 -51 -41 -187 -182 -229 -238
-44 -57 -82 -120 -102 -167 -6 -14 -22 -46 -35 -72 -13 -27 -24 -54 -24 -60 0
-7 -6 -25 -13 -39 -8 -14 -17 -45 -21 -69 -4 -24 -11 -49 -15 -55 -11 -13 -25
-166 -24 -265 0 -102 14 -253 24 -265 4 -6 11 -31 15 -55 4 -24 13 -55 21 -69
7 -14 13 -30 13 -35 0 -4 14 -38 31 -75 l31 -66 66 0 c95 0 112 -8 152 -67 34
-51 244 -268 259 -268 4 0 20 -10 34 -22 23 -21 26 -31 28 -101 2 -62 5 -80
18 -84 15 -5 32 -11 96 -37 61 -26 134 -46 161 -46 16 0 41 -6 56 -14 39 -21
326 -21 392 -1 27 8 68 15 90 15 23 0 50 7 60 15 11 8 32 15 47 15 15 0 40 7
56 15 15 7 49 23 75 35 25 11 49 28 52 36 3 9 6 44 6 79 0 57 3 67 27 90 15
14 31 25 34 25 21 0 190 172 245 250 54 76 68 82 170 79 60 -2 84 13 84 52 0
9 7 22 15 29 8 7 15 21 15 31 0 10 4 28 9 41 21 53 42 133 47 181 3 29 10 59
14 67 10 20 11 292 0 305 -4 6 -10 35 -14 65 -3 30 -12 73 -20 95 -9 22 -15
49 -16 61 0 11 -4 24 -9 30 -6 5 -12 22 -15 39 -3 16 -10 31 -16 33 -5 2 -10
11 -10 21 0 9 -7 26 -15 37 -8 10 -15 27 -15 37 0 9 -5 17 -10 17 -6 0 -14 10
-19 23 -5 12 -21 39 -35 60 -14 21 -26 40 -26 43 0 13 -149 168 -225 234 -81
71 -286 190 -326 190 -8 0 -20 5 -26 11 -6 6 -29 15 -50 20 -21 4 -56 12 -78
18 -108 27 -153 32 -281 35 -77 1 -148 0 -159 -1z m280 -34 c39 -6 93 -14 120
-18 28 -4 60 -12 72 -19 12 -7 30 -12 41 -12 28 0 154 -57 250 -113 228 -133
415 -354 505 -597 62 -168 72 -227 71 -430 -1 -165 -8 -241 -29 -305 -7 -22
-18 -58 -25 -80 -7 -22 -23 -64 -36 -92 l-24 -53 -74 0 c-41 0 -82 -3 -91 -6
-8 -4 -30 -27 -47 -52 -59 -86 -148 -181 -233 -248 -92 -74 -105 -96 -105
-186 0 -46 -1 -47 -47 -68 -27 -13 -56 -27 -66 -32 -18 -9 -56 -18 -157 -38
-30 -7 -69 -16 -86 -21 -42 -12 -333 -11 -391 2 -27 6 -69 17 -94 25 -26 8
-52 14 -59 14 -7 0 -28 7 -48 16 -21 9 -52 22 -69 30 -32 13 -33 15 -33 74 0
34 -4 70 -10 80 -5 10 -39 41 -76 70 -90 71 -171 154 -239 244 -62 82 -65 84
-175 89 -55 2 -55 2 -82 52 -15 28 -27 59 -28 70 0 11 -7 29 -15 39 -8 11 -15
32 -15 47 0 14 -7 46 -16 70 -24 64 -24 454 0 518 9 24 16 54 16 66 0 13 7 36
15 51 8 16 15 36 15 45 0 8 4 19 9 25 5 5 19 34 32 64 78 187 268 397 462 512
102 59 230 118 259 118 11 0 29 5 41 12 12 7 45 15 72 20 28 4 73 12 100 16
71 13 208 13 290 1z"/>
<path d="M1440 2357 c-3 -3 -42 -10 -87 -16 -181 -23 -333 -101 -474 -244 -79
-79 -151 -194 -175 -277 -9 -30 -21 -66 -27 -80 -6 -14 -12 -86 -15 -160 -3
-113 -1 -148 16 -212 82 -309 313 -528 637 -602 93 -21 199 -20 315 3 123 25
160 38 245 84 204 109 351 299 405 523 19 75 21 108 17 209 -6 135 -21 193
-86 328 -50 104 -114 184 -202 254 -123 97 -251 154 -392 173 -131 18 -172 22
-177 17z m170 -41 c82 -13 110 -21 195 -55 103 -40 240 -143 308 -230 49 -63
123 -209 132 -260 3 -19 10 -42 15 -51 15 -28 22 -209 11 -275 -16 -102 -30
-146 -74 -229 -56 -109 -105 -172 -182 -237 -67 -55 -206 -139 -232 -139 -8 0
-26 -6 -41 -14 -49 -24 -214 -48 -304 -43 -140 8 -226 31 -338 90 -263 139
-418 390 -418 676 0 155 25 247 115 415 8 15 47 62 87 103 195 206 450 293
726 249z"/>
<path d="M1350 2111 c-198 -46 -360 -196 -420 -390 -20 -65 -22 -89 -18 -190
5 -111 7 -119 44 -190 64 -122 176 -230 284 -275 25 -10 54 -23 65 -29 11 -6
73 -13 138 -15 123 -4 244 15 278 44 8 8 21 14 27 14 21 0 100 61 154 118 65
71 112 162 132 262 19 89 20 130 5 202 -27 133 -73 214 -178 315 -65 63 -97
83 -186 115 -56 21 -265 33 -325 19z m343 -55 c78 -29 122 -61 198 -144 53
-58 67 -81 105 -172 29 -68 26 -284 -4 -358 -52 -125 -141 -223 -253 -279 -87
-43 -126 -52 -249 -59 -96 -6 -111 -4 -179 20 -149 52 -249 135 -323 267 -44
79 -47 90 -53 179 -19 264 117 471 365 558 58 20 79 22 195 19 109 -4 141 -9
198 -31z"/>
<path d="M2495 778 c-28 -42 -166 -185 -238 -246 -22 -18 -37 -39 -34 -45 3
-7 40 -31 83 -52 44 -21 81 -42 84 -45 3 -4 12 -10 20 -14 77 -36 173 -110
271 -207 80 -80 108 -102 119 -94 103 80 136 157 111 260 -8 33 -18 62 -23 63
-4 2 -8 9 -8 16 0 7 -13 32 -30 54 -16 23 -30 44 -30 48 0 27 -176 215 -256
274 l-41 30 -28 -42z m118 -62 c72 -62 151 -158 214 -261 54 -87 78 -160 68
-209 -10 -47 -53 -114 -83 -130 -26 -14 -28 -13 -127 83 -107 103 -186 160
-329 238 -49 26 -91 53 -92 58 -2 6 22 30 51 55 30 25 91 86 136 137 47 53 87
90 93 86 6 -4 37 -29 69 -57z"/>
<path d="M365 764 c-79 -69 -138 -130 -183 -189 -25 -33 -49 -62 -52 -65 -3
-3 -13 -21 -24 -40 -10 -19 -31 -58 -47 -87 -37 -66 -40 -154 -8 -220 20 -42
85 -103 110 -103 7 0 49 37 93 83 75 76 180 164 216 180 8 4 29 16 45 27 36
23 58 35 153 85 l74 38 -69 61 c-111 98 -210 203 -232 244 -16 30 -29 28 -76
-14z m90 -45 c17 -23 77 -86 133 -141 57 -55 102 -101 100 -102 -1 -2 -34 -20
-72 -40 -178 -97 -275 -167 -386 -280 -35 -36 -69 -66 -75 -66 -6 0 -25 15
-42 33 -93 98 -86 184 31 360 74 111 236 277 269 277 7 0 26 -19 42 -41z"/>
</g>
</svg>
