<?xml version="1.0" standalone="no"?>
<!DOCTYPE svg PUBLIC "-//W3C//DTD SVG 20010904//EN"
 "http://www.w3.org/TR/2001/REC-SVG-20010904/DTD/svg10.dtd">
<svg version="1.0" xmlns="http://www.w3.org/2000/svg"
 width="105.000000pt" height="98.000000pt" viewBox="0 0 105.000000 98.000000"
 preserveAspectRatio="xMidYMid meet">
<metadata>
Created by potrace 1.10, written by Peter Selinger 2001-2011
</metadata>
<g transform="translate(0.000000,98.000000) scale(0.100000,-0.100000)"
fill="#cccccc" stroke="none">
<path d="M405 946 c-241 -76 -371 -331 -285 -558 19 -52 24 -58 50 -58 37 0
160 -119 160 -155 0 -37 73 -60 190 -60 122 0 200 25 200 65 0 38 119 160 158
160 42 0 67 73 67 200 0 88 -3 100 -36 170 -59 123 -165 211 -290 239 -60 14
-165 12 -214 -3z m230 -21 c69 -20 162 -81 202 -131 73 -93 106 -215 86 -321
-17 -91 -29 -113 -58 -113 -18 0 -44 -20 -93 -71 -37 -39 -69 -81 -72 -93 -14
-55 -180 -84 -291 -51 -47 15 -59 22 -59 39 0 28 -148 176 -176 176 -35 0 -49
50 -49 180 0 110 1 118 32 175 31 59 101 135 157 169 86 54 219 70 321 41z"/>
<path d="M468 793 c6 -2 18 -2 25 0 6 3 1 5 -13 5 -14 0 -19 -2 -12 -5z"/>
<path d="M593 785 c44 -12 120 -56 133 -77 8 -12 -4 -10 -91 17 -102 31 -139
31 -203 -1 -58 -29 -89 -65 -107 -127 l-12 -42 -17 34 c-10 18 -15 43 -12 55
10 37 64 93 118 120 29 14 45 26 37 26 -23 0 -101 -53 -132 -89 -41 -49 -42
-69 -8 -141 l31 -65 0 51 c0 94 75 175 177 189 28 4 68 -5 153 -33 110 -36
116 -40 127 -72 7 -19 12 -62 12 -96 2 -127 -93 -236 -224 -259 l-40 -8 76 79
c42 44 82 90 89 104 15 30 4 19 -34 -33 -15 -21 -42 -44 -59 -52 -88 -37 -85
-35 -52 -28 l30 6 -28 -36 c-15 -19 -27 -39 -27 -43 0 -12 89 5 128 25 77 39
140 126 156 212 3 20 1 60 -5 90 -9 42 -22 64 -63 107 -53 57 -133 102 -176
101 -17 -1 -9 -5 23 -14z"/>
<path d="M676 657 c22 -31 29 -54 34 -110 4 -62 6 -67 13 -39 10 47 -10 114
-45 153 l-29 34 27 -38z"/>
<path d="M340 450 c6 -11 13 -20 16 -20 2 0 0 9 -6 20 -6 11 -13 20 -16 20 -2
0 0 -9 6 -20z"/>
<path d="M375 400 c10 -11 20 -20 23 -20 3 0 -3 9 -13 20 -10 11 -20 20 -23
20 -3 0 3 -9 13 -20z"/>
<path d="M424 366 c11 -9 24 -16 30 -16 12 0 7 5 -24 19 -24 11 -24 11 -6 -3z"/>
<path d="M831 228 c-30 -32 -52 -60 -50 -61 2 -2 26 -16 54 -32 27 -16 70 -48
95 -71 50 -47 68 -46 90 5 10 25 9 36 -8 73 -21 46 -83 123 -110 136 -13 6
-30 -6 -71 -50z m159 -83 c24 -49 24 -55 6 -80 -13 -18 -16 -17 -62 24 -27 24
-66 52 -88 63 l-39 20 44 44 43 44 38 -37 c21 -21 47 -56 58 -78z"/>
<path d="M116 250 c-47 -42 -96 -121 -96 -156 0 -32 24 -74 42 -74 6 0 32 20
58 44 26 24 71 56 100 71 l52 26 -54 59 c-29 32 -56 58 -60 59 -4 0 -23 -13
-42 -29z m79 -40 c21 -22 37 -41 34 -43 -2 -2 -27 -17 -55 -35 -27 -17 -61
-43 -74 -57 -13 -14 -29 -25 -37 -25 -21 0 -27 49 -10 86 17 34 84 114 96 114
4 0 24 -18 46 -40z"/>
</g>
</svg>
